# xmcd
#
# Track frame offsets: 
#        150
#        16192
#        36591
#        47642
#        58146
#        74944
#        83275
#        102817
#        116445
#        131442
#        143761
#        155325
#
# Disc length: 2190 seconds
#
# Revision: 0
# Processed by: cddbd v1.5.2PL0 Copyright (c) Steve Scherf et al.
# Submitted via: ExactAudioCopy v0.99pb4
#
DISCID=9e088c0c
DTITLE=Balos Family, The - Thoughts of Heaven
DYEAR=2008
DGENRE=Bluegrass
TTITLE0=Sweet Beulah Land
TTITLE1=Roses Will Bloom Again
TTITLE2=Going Home
TTITLE3=Using My Bible For a Roadmap
TTITLE4=Sheltered In the Arms of God
TTITLE5=Rest In the Homeland
TTITLE6=There is a River
TTITLE7=Heart That Will Never Break Again
TTITLE8=Help is On the Way
TTITLE9=Mary's Little Lamb
TTITLE10=Which Came First
TTITLE11=Let's Go
EXTD=
EXTT0=
EXTT1=
EXTT2=
EXTT3=
EXTT4=
EXTT5=
EXTT6=
EXTT7=
EXTT8=
EXTT9=
EXTT10=
EXTT11=
PLAYORDER=
